name C:/MyDriveSym/Projects/mobilecap/Data\Session20210910_0002\mocap\ForceDataProcessed\walkingTS2_forces.mot
datacolumns 19
datarows 9
range 1.18450000 1.18850000
endheader 
time	R_ground_force_vx	R_ground_force_vy	R_ground_force_vz	R_ground_force_px	R_ground_force_py	R_ground_force_pz	R_ground_torque_x	R_ground_torque_y	R_ground_torque_z	L_ground_force_vx	L_ground_force_vy	L_ground_force_vz	L_ground_force_px	L_ground_force_py	L_ground_force_pz	L_ground_torque_x	L_ground_torque_y	L_ground_torque_z	
          1.18450000	          0.00000000	          0.00000000	          0.00000000	          1.24949100	          0.00000000	         -0.30122700	          0.00000000	          0.00000000	          0.00000000	         71.02803200	        870.45872900	         60.82576800	          0.93715800	          0.00600000	         -0.49893300	          0.00000000	          1.22440800	          0.00000000	
          1.18500000	          0.00000000	          0.00000000	          0.00000000	          1.25060400	          0.00000000	         -0.30130400	          0.00000000	          0.00000000	          0.00000000	         71.46197000	        870.80638600	         60.95016900	          0.93720800	          0.00600000	         -0.49892900	          0.00000000	          1.22253500	          0.00000000	
          1.18550000	          0.00000000	          0.00000000	          0.00000000	          1.25171700	          0.00000000	         -0.30138100	          0.00000000	          0.00000000	          0.00000000	         71.89652200	        871.15528000	         61.07452100	          0.93725800	          0.00600000	         -0.49892500	          0.00000000	          1.22062200	          0.00000000	
          1.18600000	          0.00000000	          0.00000000	          0.00000000	          1.25283000	          0.00000000	         -0.30145800	          0.00000000	          0.00000000	          0.00000000	         72.33167800	        871.50536400	         61.19880800	          0.93730800	          0.00600000	         -0.49892100	          0.00000000	          1.21866700	          0.00000000	
          1.18650000	          0.00000000	          0.00000000	          0.00000000	          1.25394300	          0.00000000	         -0.30153400	          0.00000000	          0.00000000	          0.00000000	         72.76742900	        871.85658900	         61.32301800	          0.93735800	          0.00600000	         -0.49891700	          0.00000000	          1.21667200	          0.00000000	
          1.18700000	          0.00000000	          0.00000000	          0.00000000	          1.25505600	          0.00000000	         -0.30161100	          0.00000000	          0.00000000	          0.00000000	         73.20376700	        872.20890500	         61.44713500	          0.93740800	          0.00600000	         -0.49891200	          0.00000000	          1.21463700	          0.00000000	
          1.18750000	          0.00000000	          0.00000000	          0.00000000	          1.25616900	          0.00000000	         -0.30168800	          0.00000000	          0.00000000	          0.00000000	         73.64068300	        872.56226300	         61.57114600	          0.93745800	          0.00600000	         -0.49890700	          0.00000000	          1.21256100	          0.00000000	
          1.18800000	          0.00000000	          0.00000000	          0.00000000	          1.25728200	          0.00000000	         -0.30176400	          0.00000000	          0.00000000	          0.00000000	         74.07816700	        872.91661200	         61.69503600	          0.93750900	          0.00600000	         -0.49890200	          0.00000000	          1.21044400	          0.00000000	
          1.18850000	          0.00000000	          0.00000000	          0.00000000	          1.25839500	          0.00000000	         -0.30184100	          0.00000000	          0.00000000	          0.00000000	         74.51620900	        873.27190000	         61.81879000	          0.93755900	          0.00600000	         -0.49889700	          0.00000000	          1.20828800	          0.00000000	
